<?xml version="1.0" encoding="utf-8"?>
<!-- Generator: Adobe Illustrator 27.5.0, SVG Export Plug-In . SVG Version: 6.00 Build 0)  -->
<svg version="1.1" xmlns="http://www.w3.org/2000/svg" xmlns:xlink="http://www.w3.org/1999/xlink" x="0px" y="0px"
	 viewBox="0 0 500 500" style="enable-background:new 0 0 500 500;" xml:space="preserve">
<!-- Background removed -->
<g id="OBJECTS">
	<g>
		<g>
			<path style="fill:#64B5F6;" d="M362.189,354.959c-17.223,11.012-68.612,56.47-90.07,53.647
				c-21.459-2.824-20.329-17.506-8.188-29.365C276.071,367.382,362.189,354.959,362.189,354.959z"/>
			<path style="fill:#4E1D23;" d="M266.322,377.442c-0.969,0.6-1.779,1.2-2.392,1.799c-12.141,11.859-13.271,26.541,8.188,29.365
				c4.639,0.61,10.678-1.039,17.466-4.105C266.106,404.235,260.936,390.079,266.322,377.442z"/>
			
				<path style="opacity:0.47;fill:none;stroke:#BBDEFB;stroke-width:0.75;stroke-linecap:round;stroke-linejoin:round;stroke-miterlimit:10;" d="
				M259.819,404.298c50.699-12.634,83.735-45.387,83.735-45.387"/>
			<path style="opacity:0.48;fill:#64B5F6;" d="M269.184,408.108c13.826-9.657,28.828-18.63,45.016-22.941
				c3.221-0.858,6.384-1.431,9.506-1.726c15.867-11.436,30.68-23.494,38.483-28.482c0,0-86.117,12.423-98.258,24.282
				C252.375,390.527,250.81,404.363,269.184,408.108z"/>
		</g>
		<g>
			<path style="fill:#64B5F6;" d="M252.071,334.065c-28.518,4.235-48.282,26.823-35.294,51.388
				c12.988,24.565,63.529,6.003,93.459-8.01c29.929-14.013,42.87-21.092,42.87-21.092L252.071,334.065z"/>
			<path style="fill:#4E1D23;" d="M253.065,334.284l-0.994-0.219c-28.518,4.235-48.282,26.823-35.294,51.388
				c6.035,11.413,20.177,13.514,36.59,11.089c-12.401-2.798-21.506-11.257-24.167-19.099
				C226.259,368.773,226.091,346.936,253.065,334.284z"/>
			<g style="opacity:0.57;">
				
					<path style="fill:none;stroke:#BBDEFB;stroke-width:0.75;stroke-linecap:round;stroke-linejoin:round;stroke-miterlimit:10;" d="
					M216.777,385.453c36.59,11.089,117.459-27.953,117.459-27.953l-15.529-5.365c0,0-59.859,30.776-105.6,20.329"/>
				
					<path style="fill:none;stroke:#BBDEFB;stroke-width:0.75;stroke-linecap:round;stroke-linejoin:round;stroke-miterlimit:10;" d="
					M214.902,359.071c17.687,10.57,79.602-6.466,85.452-9.766c5.849-3.3-16.094-5.076-16.094-5.076s-35.437,7.746-62.048,4.014"/>
			</g>
			<path style="opacity:0.48;fill:#64B5F6;" d="M227.644,356.707c16.639,1.813,33.331,3.38,49.645,7.313
				c12.457,3.003,24.617,7.275,37.276,9.244c1.117-0.02,2.231-0.072,3.344-0.151c0.255-0.083,0.505-0.182,0.759-0.269
				c2.55-1.311,5.188-2.358,7.905-3.163c18.357-8.859,26.532-13.33,26.532-13.33l-101.034-22.286
				c-15.937,2.367-29.133,10.468-35.414,21.44C220.364,355.863,224.045,356.314,227.644,356.707z"/>
			<path style="fill:none;stroke:#4E1D23;stroke-width:2;stroke-linecap:round;stroke-linejoin:round;stroke-miterlimit:10;" d="
				M244.023,397.408c40.858-4.321,76.712-24.646,99.53-36.782"/>
		</g>
		<g>
			<path style="fill:#64B5F6;" d="M391.365,181.03c-11.671-12.047,26.729-45.929,10.165-67.765
				c-16.565-21.835-52.329-30.87-89.976-10.918s-28.612,26.568-68.894,33.801s-60.988,22.292-69.27,37.351
				c-8.282,15.059-7.153,31.623,4.141,44.423c11.294,12.8,10.165,34.259-7.906,52.329c-18.071,18.071-40.282,51.576-18.071,72.282
				c22.212,20.706,86.212-12.8,102.4-11.671C270.142,331.994,391.365,181.03,391.365,181.03z"/>
			<path style="fill:#FBF4AE;" d="M325.859,194.088c0,0,11.671-24.729-8.282-38.658c-17.165-11.984-20.947-27.317-14.479-48.385
				c-28.025,16.356-23.499,22.471-60.439,29.104c-3.663,0.658-7.159,1.382-10.503,2.163c4.388,2.996,9.193,7.274,13.515,13.353
				c12.047,16.941-1.506,28.612,4.141,44.423C255.46,211.9,325.859,194.088,325.859,194.088z"/>
			<path style="fill:#4E1D23;" d="M401.53,113.265c-16.565-21.835-52.329-30.871-89.976-10.918
				c-37.647,19.953-28.612,26.568-68.894,33.801c-40.282,7.234-60.988,22.292-69.27,37.351c-3.695,6.719-5.511,13.737-5.393,20.588
				c4.752-13.82,16.818-35.439,41.158-43.552c32.753-10.918,47.435-6.776,76.8-23.341c29.364-16.565,44.8-28.988,70.776-27.482
				c20.263,1.175,39.608,8.536,48.925,24.404C405.332,120.295,404.087,116.636,401.53,113.265z"/>
			<path style="fill:#4E1D23;" d="M143.456,311.863c-2.712,11.086-1.204,22.002,8.098,30.672
				c10.377,9.674,29.875,7.514,49.357,2.582C165.422,345.066,145.869,329.772,143.456,311.863z"/>
			<g style="opacity:0.57;">
				
					<path style="fill:none;stroke:#BBDEFB;stroke-width:0.75;stroke-linecap:round;stroke-linejoin:round;stroke-miterlimit:10;" d="
					M395.923,107.045c2.972,25.797-15.475,60.808-16.228,73.232c-0.753,12.423-5.647,2.259-5.647,2.259l-7.529-3.012
					c0,0,8.982-63.984,18.232-80.557"/>
				
					<path style="fill:none;stroke:#BBDEFB;stroke-width:0.75;stroke-linecap:round;stroke-linejoin:round;stroke-miterlimit:10;" d="
					M369.53,93.312c-15.059,24.47-15.812,80.188-15.812,80.188h-11.294c0,0-4.894-49.641,5.271-82.232"/>
				
					<path style="fill:none;stroke:#BBDEFB;stroke-width:0.75;stroke-linecap:round;stroke-linejoin:round;stroke-miterlimit:10;" d="
					M324.45,96.59c5.927,22.322,7.057,79.169,7.057,79.169h-13.929c0,0,2.801-48.266-10.458-71.003"/>
				
					<path style="fill:none;stroke:#BBDEFB;stroke-width:0.75;stroke-linecap:round;stroke-linejoin:round;stroke-miterlimit:10;" d="
					M291.822,114.168c15.967,23.944,15.297,61.591,15.297,61.591l-7.646,1.506c0,0-2.422-30.179-20.205-54.054"/>
				
					<path style="fill:none;stroke:#BBDEFB;stroke-width:0.75;stroke-linecap:round;stroke-linejoin:round;stroke-miterlimit:10;" d="
					M264.36,130.891c18.959,29.057,16.344,53.527,16.344,53.527h-6.708c0,0-7.43-29.579-24.488-49.59"/>
				
					<path style="fill:none;stroke:#BBDEFB;stroke-width:0.75;stroke-linecap:round;stroke-linejoin:round;stroke-miterlimit:10;" d="
					M222.484,140.855c23.188,10.809,37.776,31.536,41.447,45.596c3.67,14.06-11.577,5.307-11.577,5.307s-8.963-29.785-51.916-42.281
					"/>
				
					<path style="fill:none;stroke:#BBDEFB;stroke-width:0.75;stroke-linecap:round;stroke-linejoin:round;stroke-miterlimit:10;" d="
					M185.843,158.934c33.476,3.743,57.758,36.214,59.452,41.861c1.694,5.647-12.826,2.824-12.826,2.824s-25.95-26.635-59.08-30.118"
					/>
				
					<path style="fill:none;stroke:#BBDEFB;stroke-width:0.75;stroke-linecap:round;stroke-linejoin:round;stroke-miterlimit:10;" d="
					M168.128,190.298c24.932-1.645,53.732,16.708,53.732,16.708l-5.365,4.235c0,0-21.34-12.706-46.811-6.918"/>
			</g>
			<g style="opacity:0.57;">
				
					<path style="fill:none;stroke:#BBDEFB;stroke-width:0.75;stroke-linecap:round;stroke-linejoin:round;stroke-miterlimit:10;" d="
					M142.516,317.09c17.791-1.66,35.862-9.848,35.862-9.848l9.882,3.106c0,0-24.06,15.229-44.924,19.05"/>
				
					<path style="fill:none;stroke:#BBDEFB;stroke-width:0.75;stroke-linecap:round;stroke-linejoin:round;stroke-miterlimit:10;" d="
					M147.126,337.443c24.475,0.292,51.016-25.58,51.016-25.58l6.494,2.437c0,0-19.855,23.653-46.775,32.297"/>
				
					<path style="fill:none;stroke:#BBDEFB;stroke-width:0.75;stroke-linecap:round;stroke-linejoin:round;stroke-miterlimit:10;" d="
					M177.091,349.185c22.462-12.862,37.992-32.909,37.992-32.909h12.424c0,0-8.188,13.661-22.87,27.866"/>
			</g>
			<path style="opacity:0.48;fill:#64B5F6;" d="M399.781,147.614c-1.83,0.902-3.705,1.774-5.63,2.634
				c-4.14,1.849-8.388,3.171-12.805,4.187c-8.551,1.968-17.254,3.928-25.97,4.823c-25.398,2.607-49.25-6.849-74.014-10.061
				c-3.562-0.06-7.109,0.07-10.649,0.422c-0.88,0.263-1.754,0.546-2.622,0.849c-11.901,7.233-21.715,17.227-33.182,25.191
				c-16.626,11.546-35.348,17.21-55.139,20.08c-3.822,0.554-7.713,0.869-11.635,0.974c0.688,7.568,3.787,14.853,9.395,21.21
				c11.294,12.8,10.165,34.259-7.906,52.329c-10.619,10.619-22.663,26.567-26.287,42.116c8.647,0.155,17.28,1.542,25.491,4.081
				c13.369,4.133,22.826,8.504,33.959,16.83c3.498,2.616,6.48,5.585,9.112,8.803c18.218-5.381,34.859-11.72,42.054-11.218
				c16.188,1.13,137.411-149.835,137.411-149.835C385.043,174.504,393.413,161.569,399.781,147.614z"/>
		</g>
		<g>
			<path style="fill:#BBDEFB;" d="M445.765,194.451c-39.529-30.363-91.438-39.609-158.942-26.798
				c-67.505,12.812-83.137,49.537-139.697,52.633c-56.56,3.096-57.125-33.541-88.184-38.658
				c-31.059-5.117-42.353,32.154-33.318,50.225c9.035,18.071,12.424,62.325,6.212,80.01c-6.212,17.684,6.212,48.729,38.4,37.442
				c32.188-11.287,39.529-38.393,61.553-42.064c22.023-3.671,64.359,4.391,110.673,25.49s84.15,35.781,133.279,23.922
				s102.212-39.529,101.647-86.4C476.824,223.383,445.765,194.451,445.765,194.451z"/>
			<g>
				<path style="fill:#4E1D23;" d="M40.04,345.234c-6.612-12.843,7.133-21.034,8.361-50.511c1.506-36.141-5.27-38.776-12.424-65.129
					c-6.655-24.521,4.625-45.769,31.397-45.574c-2.568-1.06-5.348-1.883-8.432-2.391c-31.059-5.117-42.353,32.154-33.317,50.225
					c9.035,18.071,12.423,62.325,6.212,80.01C28.236,322.113,30.898,336.852,40.04,345.234z"/>
				<path style="fill:#4E1D23;" d="M115.789,290.582c-7.53-12.047-6.777-27.859,3.012-47.435c4.08-8.16,6.783-16.551,8.552-23.569
					c-9.565-1.373-16.953-4.227-23.094-7.794c2.536,11.433,1.731,25.694-0.893,44.539c-4.141,29.741,8.659,37.27,16.941,50.918
					c0.777,1.281,1.415,2.397,1.924,3.38c1.026-0.567,2.083-1.072,3.169-1.525C122.418,302.638,118.94,295.623,115.789,290.582z"/>
			</g>
			<path style="fill:#FBF4AE;" d="M113.085,215.981c4.869,17.566-4.166,37.049-6.99,53.99c-2.823,16.941,16.136,40.65,16.136,40.651
				c2.921-1.613,6.052-2.796,9.558-3.38c3.495-0.583,7.505-0.867,11.957-0.853c-5.315-4.363-27.798-24.649-8.004-40.935
				c22.306-18.353,42.238-18.234,48.507-33.823c3.644-9.061,3.051-15.998,1.916-20.223c-11.224,4.683-23.606,8.035-39.039,8.88
				C132.552,221.084,121.703,219.24,113.085,215.981z"/>
			<g style="opacity:0.57;">
				
					<path style="fill:none;stroke:#BBDEFB;stroke-width:0.75;stroke-linecap:round;stroke-linejoin:round;stroke-miterlimit:10;" d="
					M32.66,190.194c26.847-4.929,81.831,36.291,81.831,36.291"/>
				
					<path style="fill:none;stroke:#BBDEFB;stroke-width:0.75;stroke-linecap:round;stroke-linejoin:round;stroke-miterlimit:10;" d="
					M24.213,206.441c29.929,1.976,71.763,21.836,89.528,29.977"/>
				
					<path style="fill:none;stroke:#BBDEFB;stroke-width:0.75;stroke-linecap:round;stroke-linejoin:round;stroke-miterlimit:10;" d="
					M22.997,223.112c34.251,11.565,89.075,21.87,89.075,21.87"/>
				
					<path style="fill:none;stroke:#BBDEFB;stroke-width:0.75;stroke-linecap:round;stroke-linejoin:round;stroke-miterlimit:10;" d="
					M30.223,244.982c27.025,6.353,65.805,9.264,80.015,7.385"/>
				
					<path style="fill:none;stroke:#BBDEFB;stroke-width:0.75;stroke-linecap:round;stroke-linejoin:round;stroke-miterlimit:10;" d="
					M33.561,263.193c41.193,7.908,73.919,0,73.919,0"/>
				
					<path style="fill:none;stroke:#BBDEFB;stroke-width:0.75;stroke-linecap:round;stroke-linejoin:round;stroke-miterlimit:10;" d="
					M34.966,282.665c31.318,1.706,57.306-3.64,70.853-8.449"/>
				
					<path style="fill:none;stroke:#BBDEFB;stroke-width:0.75;stroke-linecap:round;stroke-linejoin:round;stroke-miterlimit:10;" d="
					M34.095,303.853c30.494,0.565,73.385-20.209,73.385-20.209"/>
				
					<path style="fill:none;stroke:#BBDEFB;stroke-width:0.75;stroke-linecap:round;stroke-linejoin:round;stroke-miterlimit:10;" d="
					M30.463,324.931c32.433,3.204,83.279-27.135,83.279-27.135"/>
				
					<path style="fill:none;stroke:#BBDEFB;stroke-width:0.75;stroke-linecap:round;stroke-linejoin:round;stroke-miterlimit:10;" d="
					M40.04,345.234c29.349,0.972,77.392-41.37,77.392-41.37"/>
			</g>
			<g>
				<path style="fill:#4E1D23;" d="M286.818,350.984c5.632,1.641,11.24,3.135,16.85,4.412c11.015-9.478,39.06-26.045,25.911-76.861
					c-13.152-50.823-24.988-67.506-10.521-88.341c8.431-12.142,12.866-20.53,12.797-27.578c-14.167,0.794-29.01,2.435-44.575,4.955
					c-0.153,0.029-0.303,0.054-0.457,0.083c-17.835,3.385-32.047,8.439-44.352,14.102c-5.096,27.086,10.806,42.113,22.227,63.227
					c10.677,19.741,2.115,67.294-16.735,90.238C261.412,341.273,274.198,346.697,286.818,350.984z"/>
				<path style="fill:#FBF4AE;" d="M301.349,355.396c9.459-9.478,33.544-26.045,22.251-76.861
					c-11.294-50.823-21.459-67.506-9.035-88.341c7.24-12.142,11.049-20.53,10.99-27.578c-12.305,0.803-25.2,2.469-38.732,5.038
					c-14.612,2.773-26.791,6.668-37.483,11.098c-5.927,29.008,8.378,44.348,18.543,66.23c9.425,20.291,1.397,69.975-15.742,92.107
					C269.197,344.668,285.249,351.126,301.349,355.396z"/>
			</g>
			<g>
				<path style="fill:#4E1D23;" d="M445.765,194.451c-9.185-7.055-19.048-12.955-29.611-17.718
					c-40.236,12.177-65.994,50.41-68.273,107.187c-2.069,51.556,26.116,73.154,27.86,72.733c3.786-0.914,7.596-1.923,11.404-3.026
					c-9.101-9.069-20.805-26.885-21.999-59.119c-1.835-49.549,46.707-92.615,87.54-92.29
					C448.658,197.153,445.765,194.451,445.765,194.451z"/>
				<path style="fill:#FBF4AE;" d="M445.765,194.451c-7.251-5.57-14.924-10.422-23.028-14.565
					c-41.087,9.956-65.822,47.158-69.631,103.259c-3.044,44.831,14.096,64.9,24.821,72.97c5.018-1.257,10.068-2.68,15.09-4.27
					c-8.841-7.699-22.235-24.836-23.487-58.627c-1.782-48.101,46.343-89.786,85.654-87.732
					C449.905,198.318,445.765,194.451,445.765,194.451z"/>
			</g>
			<g>
				
					<ellipse transform="matrix(0.981 -0.1938 0.1938 0.981 -37.6821 84.1052)" style="opacity:0.48;fill:#64B5F6;" cx="411.067" cy="234.667" rx="27.53" ry="27.53"/>
				<g>
					<circle style="fill:#FFFFFF;" cx="418.126" cy="235.339" r="27.53"/>
					<g>
						<circle style="fill:#230D11;" cx="416.155" cy="234.667" r="20.156"/>
						<path style="fill:#FFFFFF;" d="M401.08,233.223c2.157,2.864,7.054,2.815,10.937-0.11c3.883-2.925,5.282-7.617,3.125-10.481
							c-2.157-2.864-7.054-2.815-10.937,0.109C400.322,225.666,398.923,230.359,401.08,233.223z"/>
						<path style="fill:#FFFFFF;" d="M410.736,241.062c0.819,1.087,2.364,1.305,3.451,0.486c1.087-0.819,1.305-2.364,0.486-3.451
							c-0.819-1.087-2.364-1.305-3.451-0.486C410.135,238.43,409.918,239.975,410.736,241.062z"/>
					</g>
				</g>
			</g>
			<path style="opacity:0.48;fill:#64B5F6;" d="M375.742,356.653c27.886-6.731,57.041-18.559,76.941-36.098
				c-3.298-2.973-8.804-3.255-17.56,1.061c-37.748,18.61-100.886,35.884-158.204,3.552c-57.317-32.332-96-81.456-153.035-47.21
				c-43.34,26.023-64.834,43.251-89.258,18.336c-0.466,6.147-1.377,11.548-2.789,15.568c-6.212,17.684,6.212,48.729,38.4,37.442
				c32.188-11.287,39.529-38.393,61.553-42.064c22.023-3.671,64.359,4.391,110.673,25.49
				C288.777,353.829,326.612,368.512,375.742,356.653z"/>
			<g>
				<path style="fill:none;stroke:#BBDEFB;stroke-linecap:round;stroke-linejoin:round;stroke-miterlimit:10;" d="M216.307,244.088
					c-18.07,4.518-9.788,12.235,0,12.235c0,0-8.333,3.388-6.896,7.906c1.437,4.518,16.119,4.141,16.119,4.141
					s-7.153,3.341-6.023,6.47c1.129,3.13,9.977,4.259,9.977,4.259"/>
				<path style="fill:none;stroke:#BBDEFB;stroke-linecap:round;stroke-linejoin:round;stroke-miterlimit:10;" d="M192.777,261.014
					c0,0-9.412,1.521-9.412,5.098c0,3.576,14.682,6.588,14.682,6.588"/>
				<path style="fill:none;stroke:#BBDEFB;stroke-linecap:round;stroke-linejoin:round;stroke-miterlimit:10;" d="M205.638,270.253
					c0,0-9.284,2.259-7.59,7.718c1.694,5.459,11.363,7.718,11.363,7.718"/>
				<path style="fill:none;stroke:#BBDEFB;stroke-linecap:round;stroke-linejoin:round;stroke-miterlimit:10;" d="M218.377,284.653
					c0,0-10.592,1.223-8.966,6.682c1.625,5.459,12.919,7.906,12.919,7.906"/>
				<path style="fill:none;stroke:#BBDEFB;stroke-linecap:round;stroke-linejoin:round;stroke-miterlimit:10;" d="M198.048,277.971
					c0,0-11.485-0.504-11.013,5.018c0.472,5.523,11.013,9.906,11.013,9.906s-8.847-1.665-9.035,1.964
					c-0.188,3.629,13.286,9.005,13.286,9.005"/>
				<path style="fill:none;stroke:#BBDEFB;stroke-linecap:round;stroke-linejoin:round;stroke-miterlimit:10;" d="M182.236,279.1
					c0,0-9.427-0.688-10.656,3.012c-1.767,5.317,11.786,9.035,11.786,9.035"/>
			</g>
			<path style="opacity:0.43;fill:#BBDEFB;" d="M419.899,200.718c7.946-4.514,9.622-11.67,5.435-19.466
				c-36.519-19.588-82.058-24.313-138.51-13.598c-67.505,12.812-83.137,49.537-139.697,52.633
				c-56.56,3.096-57.125-33.541-88.184-38.658c-6.094-1.004-11.423-0.37-15.991,1.424c35.63,8.803,43.618,54.45,104.175,52.287
				c65.981-2.357,80.457-26.687,149.924-41.251C366.518,179.524,391.209,217.018,419.899,200.718z"/>
			<g>
				<path style="fill:none;stroke:#4E1D23;stroke-width:2;stroke-linecap:round;stroke-linejoin:round;stroke-miterlimit:10;" d="
					M130.89,219.736c39.906,2.635,55.282-8.261,95.029-29.542c39.747-21.281,87.698-31.203,134.687-27.372
					c46.989,3.832,83.808,21.238,100.599,51.688"/>
				<path style="fill:none;stroke:#4E1D23;stroke-width:2;stroke-linecap:round;stroke-linejoin:round;stroke-miterlimit:10;" d="
					M99.563,330.583c20.744-23.342,26.809-22.753,41.114-24.259c14.306-1.506,46.202,4.12,72.026,14.381"/>
				<path style="fill:none;stroke:#4E1D23;stroke-width:2;stroke-linecap:round;stroke-linejoin:round;stroke-miterlimit:10;" d="
					M303.668,355.396c26.562,6.176,53.71,8.357,83.477-1.769"/>
			</g>
		</g>
		<g>
			<path style="fill:#BBDEFB;" d="M420.099,271.47c0.157-17.139-12.563-25.258-25.284-25.598
				c-16.387-0.438-32.363,16.943-24.122,40.876C378.89,310.557,419.889,294.329,420.099,271.47z"/>
			<g>
				<path style="fill:none;stroke:#4E1D23;stroke-width:2;stroke-linecap:round;stroke-linejoin:round;stroke-miterlimit:10;" d="
					M420.099,271.47c0.157-17.139-12.563-25.258-25.284-25.598c-9.693-0.259-19.242,5.716-23.721,15.594"/>
				<g>
					<path style="fill:none;stroke:#4E1D23;stroke-width:2;stroke-linecap:round;stroke-linejoin:round;stroke-miterlimit:10;" d="
						M395.999,272.165c7.967,35.247,49.243,32.358,62.419,17.447"/>
					<path style="fill:none;stroke:#4E1D23;stroke-width:2;stroke-linecap:round;stroke-linejoin:round;stroke-miterlimit:10;" d="
						M400.23,271.078c-6.894-1.271-8.164,4.8-8.164,4.8"/>
				</g>
			</g>
		</g>
		<g>
			<g>
				<path style="fill:#64B5F6;" d="M339.788,286.224c-18.702-2.729-34.362-13.835-44.238-33.6
					c-9.875-19.765-30.862-16.941-43.859-4.8c-12.998,12.141-22.482,43.012-13.451,65.506c9.031,22.494,14.218,37.739,31.575,44.987
					c17.356,7.248,54.463-6.023,72.418-40.187c-4.545-4.022-5.436-9.351,0-16.941C336.169,297.555,336.114,292.37,339.788,286.224z"
					/>
				<path style="fill:#4E1D23;" d="M269.815,358.317c3.226,1.347,7.136,1.982,11.476,1.91
					c-39.533-29.554-40.153-64.261-32.61-87.267c5.195-15.848,29.182-28.716,43.904-25.183
					c-10.672-14.32-29.082-10.987-40.894,0.047c-12.998,12.141-22.482,43.012-13.45,65.506
					C247.272,335.823,252.459,351.069,269.815,358.317z"/>
				<g style="opacity:0.57;">
					
						<path style="fill:none;stroke:#BBDEFB;stroke-width:0.75;stroke-linecap:round;stroke-linejoin:round;stroke-miterlimit:10;" d="
						M262.159,240.888c10.948,29.242,44.965,50.887,75.238,51.5"/>
					
						<path style="fill:none;stroke:#BBDEFB;stroke-width:0.75;stroke-linecap:round;stroke-linejoin:round;stroke-miterlimit:10;" d="
						M243.081,259.782c11.472,26.442,62.648,43.441,96.611,39.459"/>
					
						<path style="fill:none;stroke:#BBDEFB;stroke-width:0.75;stroke-linecap:round;stroke-linejoin:round;stroke-miterlimit:10;" d="
						M234.803,289.612c25.436,14.682,77.206,22.023,107.43,11.576"/>
					
						<path style="fill:none;stroke:#BBDEFB;stroke-width:0.75;stroke-linecap:round;stroke-linejoin:round;stroke-miterlimit:10;" d="
						M238.241,313.329c47.734,8.188,69.97,3.319,100.747-5.917"/>
					
						<path style="fill:none;stroke:#BBDEFB;stroke-width:0.75;stroke-linecap:round;stroke-linejoin:round;stroke-miterlimit:10;" d="
						M247.272,335.824c41.396-4.424,65.896-15.153,91.352-23.624"/>
					
						<path style="fill:none;stroke:#BBDEFB;stroke-width:0.75;stroke-linecap:round;stroke-linejoin:round;stroke-miterlimit:10;" d="
						M258.45,351.034c41.59-3.257,81.684-35.233,81.684-35.233"/>
				</g>
			</g>
			<path style="opacity:0.76;fill:#BBDEFB;" d="M261.885,261.825c13.592-2.465,28.176-0.446,40.262,6.256
				c5.027,2.788,9.692,6.119,14.3,9.497c0.753,0.399,1.516,0.778,2.284,1.148c-9.383-5.689-17.311-14.354-23.181-26.103
				c-9.876-19.765-30.862-16.941-43.86-4.8c-5.626,5.256-10.591,14.023-13.684,24.1
				C244.915,266.876,253.116,263.415,261.885,261.825z"/>
			<g>
				<path style="fill:none;stroke:#4E1D23;stroke-width:2;stroke-linecap:round;stroke-linejoin:round;stroke-miterlimit:10;" d="
					M235.652,281.95c6.626-45.319,44.267-55.267,59.113-30.571c13.064,21.732,22.759,31.417,45.023,34.845
					c-4.359,8.091-2.451,12.424,2.445,14.965c-4.053,6.804-4.603,12.609,0,16.941"/>
				<path style="fill:none;stroke:#4E1D23;stroke-width:2;stroke-linecap:round;stroke-linejoin:round;stroke-miterlimit:10;" d="
					M269.815,358.317c25.121,6.078,42.349-8.052,53.5-16.234"/>
			</g>
		</g>
	</g>
	<g>
		<g>
			<path style="opacity:0.6;fill:#C6E0FF;" d="M176.845,403.482c-3.334,7.104-10.551,12.685-18.338,12.685
				c-1.748,0-3.432-0.188-5.052-0.513c1.388,6.057,6.799,10.58,13.277,10.58c7.529,0,13.633-6.103,13.633-13.633
				C180.365,409.091,179.026,405.899,176.845,403.482z"/>
			<path style="fill:none;stroke:#C6E0FF;stroke-linecap:round;stroke-linejoin:round;stroke-miterlimit:10;" d="M155.835,420.795
				c-1.717-2.281-2.735-5.118-2.735-8.193c0-7.529,6.104-13.633,13.633-13.633c7.529,0,13.633,6.104,13.633,13.633
				c0,4.706-2.384,8.855-6.01,11.304"/>
		</g>
		<g>
			<path style="opacity:0.6;fill:#C6E0FF;" d="M448.348,136.781c-3.334,7.104-10.55,12.685-18.338,12.685
				c-1.748,0-3.432-0.188-5.052-0.513c1.388,6.057,6.799,10.58,13.277,10.58c7.529,0,13.633-6.104,13.633-13.633
				C451.868,142.389,450.529,139.198,448.348,136.781z"/>
			<path style="fill:none;stroke:#C6E0FF;stroke-linecap:round;stroke-linejoin:round;stroke-miterlimit:10;" d="M427.338,154.094
				c-1.717-2.281-2.735-5.118-2.735-8.193c0-7.529,6.104-13.633,13.633-13.633c7.529,0,13.633,6.104,13.633,13.633
				c0,4.706-2.384,8.855-6.01,11.304"/>
		</g>
		<g>
			<path style="opacity:0.6;fill:#C6E0FF;" d="M172.943,99.955c0.023,0.185,0.062,0.363,0.082,0.55
				c1.151,11.076-8.924,22.747-20.187,22.747c-0.319,0-0.628-0.028-0.944-0.039c2.364,7.228,9.152,12.454,17.169,12.454
				c9.98,0,18.071-8.09,18.071-18.071C187.134,108.951,181.057,101.732,172.943,99.955z"/>
			<path style="fill:none;stroke:#C6E0FF;stroke-linecap:round;stroke-linejoin:round;stroke-miterlimit:10;" d="M180.787,131.349
				c-3.156,2.693-7.25,4.319-11.724,4.319c-9.98,0-18.07-8.09-18.07-18.071s8.09-18.071,18.07-18.071
				c6.238,0,11.737,3.16,14.984,7.967"/>
		</g>
		<path style="fill:none;stroke:#C6E0FF;stroke-linecap:round;stroke-linejoin:round;stroke-miterlimit:10;" d="M200.769,103.21
			c0,3.372-2.734,6.106-6.106,6.106s-6.106-2.734-6.106-6.106c0-3.372,2.734-6.106,6.106-6.106S200.769,99.837,200.769,103.21z"/>
		<path style="fill:none;stroke:#C6E0FF;stroke-linecap:round;stroke-linejoin:round;stroke-miterlimit:10;" d="M96.675,125.69
			c0,3.372-2.734,6.106-6.106,6.106c-3.372,0-6.106-2.734-6.106-6.106s2.734-6.106,6.106-6.106
			C93.942,119.584,96.675,122.318,96.675,125.69z"/>
		<path style="fill:none;stroke:#C6E0FF;stroke-linecap:round;stroke-linejoin:round;stroke-miterlimit:10;" d="M133.459,375.421
			c0,3.372-2.734,6.106-6.106,6.106c-3.372,0-6.106-2.734-6.106-6.106s2.734-6.106,6.106-6.106
			C130.725,369.315,133.459,372.049,133.459,375.421z"/>
		<path style="fill:none;stroke:#C6E0FF;stroke-linecap:round;stroke-linejoin:round;stroke-miterlimit:10;" d="M333.926,443.951
			c0,3.372-2.734,6.106-6.106,6.106s-6.106-2.734-6.106-6.106s2.734-6.106,6.106-6.106S333.926,440.579,333.926,443.951z"/>
		<path style="fill:none;stroke:#C6E0FF;stroke-linecap:round;stroke-linejoin:round;stroke-miterlimit:10;" d="M294.755,98.598
			c0,3.372-2.734,6.106-6.106,6.106s-6.106-2.734-6.106-6.106s2.734-6.106,6.106-6.106S294.755,95.226,294.755,98.598z"/>
		<path style="fill:none;stroke:#C6E0FF;stroke-linecap:round;stroke-linejoin:round;stroke-miterlimit:10;" d="M166.732,98.774
			c0,3.372-2.734,6.106-6.106,6.106c-3.372,0-6.106-2.734-6.106-6.106s2.734-6.106,6.106-6.106
			C163.999,92.668,166.732,95.402,166.732,98.774z"/>
		
			<circle style="fill:none;stroke:#C6E0FF;stroke-linecap:round;stroke-linejoin:round;stroke-miterlimit:10;" cx="408.111" cy="80.342" r="9.035"/>
		<g>
			<path style="opacity:0.6;fill:#C6E0FF;" d="M371.624,412.602c0.295,10.678-9.433,21.475-20.265,21.475
				c-3.133,0-6.081-0.552-8.761-1.567c2.645,6.696,9.161,11.441,16.798,11.441c9.98,0,18.071-8.09,18.071-18.07
				C377.467,420.623,375.208,415.905,371.624,412.602z"/>
			<path style="fill:none;stroke:#C6E0FF;stroke-linecap:round;stroke-linejoin:round;stroke-miterlimit:10;" d="M359.396,443.951
				c-9.98,0-18.071-8.09-18.071-18.07s8.09-18.071,18.071-18.071s18.071,8.091,18.071,18.071"/>
		</g>
		<g>
			<path style="opacity:0.6;fill:#C6E0FF;" d="M103.412,155.426c-1.845,0-3.618-0.209-5.32-0.571
				c1.091,4.267,4.95,7.427,9.558,7.427c5.454,0,9.876-4.422,9.876-9.876c0-1.057-0.17-2.073-0.477-3.028
				C113.367,153.027,108.513,155.426,103.412,155.426z"/>
			<path style="fill:none;stroke:#C6E0FF;stroke-linecap:round;stroke-linejoin:round;stroke-miterlimit:10;" d="M107.649,162.282
				c-5.454,0-9.876-4.422-9.876-9.876s4.422-9.876,9.876-9.876c5.454,0,9.876,4.422,9.876,9.876"/>
		</g>
		
			<circle style="fill:none;stroke:#C6E0FF;stroke-linecap:round;stroke-linejoin:round;stroke-miterlimit:10;" cx="430.594" cy="401.244" r="3.859"/>
	</g>
</g>
</svg>
